# xmcd
#
# Track frame offsets: 
#        150
#        33084
#        53145
#        81117
#        105142
#        133147
#        156472
#        174135
#        207471
#        227166
#        248236
#        268961
#
# Disc length: 4082 seconds
#
# Revision: 0
# Processed by: cddbd v1.5.2PL0 Copyright (c) Steve Scherf et al.
# Submitted via: ExactAudioCopy v1.0b1
#
DISCID=9d0ff00c
DTITLE=Liquid Groove Mojo - Acoustically Challenged "Live and Unplugged"
DYEAR=2006
DGENRE=Blues
TTITLE0=Franklin's Tower
TTITLE1=Sunshine
TTITLE2=Little Wing
TTITLE3=Mojo "Workin"
TTITLE4=Hello Goodbye
TTITLE5=Walkin' the Dog
TTITLE6=High Price
TTITLE7=Thrill is Gone
TTITLE8=Cradle to the Grave
TTITLE9=Into the Mystic
TTITLE10=Long Walk
TTITLE11=Same Thing
EXTD=
EXTT0=
EXTT1=
EXTT2=
EXTT3=
EXTT4=
EXTT5=
EXTT6=
EXTT7=
EXTT8=
EXTT9=
EXTT10=
EXTT11=
PLAYORDER=
